<?xml version="1.0" standalone="no"?><!DOCTYPE svg PUBLIC "-//W3C//DTD SVG 1.1//EN" "http://www.w3.org/Graphics/SVG/1.1/DTD/svg11.dtd"><svg t="1535628961762" class="icon" style="" viewBox="0 0 1024 1024" version="1.1" xmlns="http://www.w3.org/2000/svg" p-id="2269" xmlns:xlink="http://www.w3.org/1999/xlink" width="32" height="32"><defs><style type="text/css"></style></defs><path d="M540.910958 712.64374c-47.613414 70.7606-117.113301 150.862963-187.574073 150.712537 36.561707-33.809013 59.868529-101.496625 73.843822-158.901033-171.636079-33.92874-299.380508-162.445766-299.380508-315.921229 0-179.364087 174.399005-324.760548 389.523551-324.760548 215.086683 0 389.484665 145.396461 389.484665 324.760548C906.808416 561.26196 745.023706 702.452633 540.910958 712.64374zM488.870722 535.782659l25.629727-17.620309c-11.212366-17.07898-24.287149-35.770691-39.244816-56.063877l-23.627117 15.617699C464.703299 495.876788 477.11805 515.228531 488.870722 535.782659zM359.924931 588.643588c14.416338 0.270153 27.371394 0.401136 38.844703 0.401136 27.230178 0 40.84629-14.146185 40.84629-42.448788L439.615924 442.075441l78.489632 0 0-25.628704L439.615924 416.446737l0-38.044478-28.833699 0 0 38.044478-81.69258 0 0 25.628704 81.69258 0 0 98.112552c0 13.615089-6.266727 20.423145-18.821671 20.423145-8.809643 0-20.963451-0.801249-36.440957-2.403746C357.380992 569.690934 358.862739 579.832921 359.924931 588.643588zM344.306208 554.60433c14.156418-24.297382 28.432563-51.519374 42.8489-81.693604l-27.230178-12.81384c-14.956643 33.108049-28.972868 59.798944-42.048675 80.09213C327.747067 544.992415 336.557734 549.798884 344.306208 554.60433zM518.105556 248.654196l-85.09712 0 13.414521-6.40692c-7.208169-13.877055-14.956643-27.632337-23.225981-41.247426l-25.629727 12.012591c7.349385 12.814864 13.877055 24.698518 19.62292 35.640732l-86.498026 0 0 25.629727 187.414437 0L518.10658 248.654196zM528.516674 341.560166l-60.669778 0c11.753695-14.015202 24.087605-29.362748 37.042661-46.051849l-28.432563-16.018835c-12.273535 20.424168-25.689079 41.117466-40.245609 62.070684l-52.860928 0 22.626323-16.418948c-13.877055-19.481703-25.228591-34.568307-34.039257-45.251623l-21.62553 15.217586c10.012028 12.954033 20.684088 28.432563 32.03767 46.452985l-64.47443 0 0 25.629727 210.641441 0L528.516674 341.560166zM717.132472 357.979114 570.965461 357.979114l0-93.307106c37.102013-2.131547 82.093716-6.667863 134.953621-13.615089l-10.412141-30.835286c-46.712905 10.412141-97.710392 15.887852-152.974044 16.417925l0 166.991292c0 73.684186-17.219173 129.34795-51.658544 166.991292 7.748475 8.809643 14.81645 17.350157 21.224394 25.629727 39.244816-45.651736 58.866712-109.454878 58.866712-191.419657l0-19.621896 59.267848 0 0 209.840192 29.633924 0L659.867234 385.211339l57.265238 0L717.132472 357.979114z" p-id="2270" fill="#d81e06"></path></svg>